<svg xmlns="http://www.w3.org/2000/svg" width="600" height="450" viewBox="0 0 600 450">
<defs><linearGradient id="bg" x2="0.9" y2="1"><stop stop-color="#f0ece5"/><stop offset="1" stop-color="#e4ded3"/></linearGradient><linearGradient id="leather" x2="0.8" y2="1"><stop stop-color="#484946"/><stop offset="0.5" stop-color="#272b2c"/><stop offset="1" stop-color="#151d23"/></linearGradient><linearGradient id="edge" x2="1" y2="0.1"><stop stop-color="#5b5c55"/><stop offset="1" stop-color="#202727"/></linearGradient><filter id="shadow"><feDropShadow dx="5" dy="18" stdDeviation="17" flood-color="#5c5548" flood-opacity=".28"/></filter><pattern id="grain" width="5" height="5" patternUnits="userSpaceOnUse"><circle cx="1" cy="1" r=".6" fill="#f5f2dc" opacity=".09"/><path d="m3 2 1 2" stroke="#070e10" stroke-width=".5" opacity=".35"/></pattern></defs>
<path fill="url(#bg)" d="M0 0h600v450H0z"/><path d="M0 351 600 133M0 396 600 178" fill="none" stroke="#fff" opacity=".12" stroke-width="2"/>
<g transform="translate(151 101) rotate(-9 150 120)" filter="url(#shadow)"><rect x="0" y="5" width="300" height="234" rx="16" fill="#343935"/><path d="M8 217h279v13H13z" fill="url(#edge)"/><rect width="300" height="222" rx="15" fill="url(#leather)"/><rect width="300" height="222" rx="15" fill="url(#grain)"/><rect x="11" y="11" width="278" height="200" rx="9" fill="none" stroke="#82837a" stroke-opacity=".45" stroke-dasharray="2 3"/><path d="M26 4v212" fill="none" stroke="#111a1a" opacity=".5"/><path d="M30 4v212" fill="none" stroke="#8d8f81" opacity=".12"/><rect x="242" y="174" width="25" height="6" rx="1.5" fill="#c5b693"/><rect x="244" y="175" width="21" height="1" fill="#e5dabf" opacity=".65"/></g></svg>
